<?xml version="1.0" encoding="UTF-8"?>
<!DOCTYPE svg PUBLIC "-//W3C//DTD SVG 1.1//EN" "http://www.w3.org/Graphics/SVG/1.1/DTD/svg11.dtd">
<svg version="1.1" xmlns="http://www.w3.org/2000/svg" xmlns:xlink="http://www.w3.org/1999/xlink" x="0" y="0" width="20" height="20" viewBox="0 0 20 20">
  <path
     d="M 10.046875 0.625 C 7.1078426 0.625 4.7167969 3.016808 4.7167969 5.9570312 L 4.7167969 8.5527344 L 4.4472656 8.5527344 C 3.3467697 8.5527344 2.4492188 9.4522368 2.4492188 10.552734 L 2.4492188 17.304688 C 2.4492188 18.4028 3.347165 19.304688 4.4472656 19.304688 L 15.648438 19.304688 C 16.749332 19.304688 17.646484 18.402401 17.646484 17.304688 L 17.646484 10.552734 C 17.646484 9.4522368 16.748139 8.5527344 15.648438 8.5527344 L 15.376953 8.5527344 L 15.376953 5.9570312 C 15.376953 3.016808 12.986699 0.625 10.046875 0.625 z M 10.046875 3.2890625 C 11.515395 3.2890625 12.707031 4.4869196 12.707031 5.9570312 L 12.707031 8.5527344 L 7.3847656 8.5527344 L 7.3847656 5.9570312 C 7.3847656 4.4869195 8.5799409 3.2890625 10.046875 3.2890625 z M 6.5976562 11.416016 L 11.845703 11.419922 C 12.029176 11.417481 12.231749 11.462948 12.453125 11.554688 C 12.674501 11.646424 12.850856 11.757106 12.980469 11.886719 L 14.505859 13.412109 C 14.633044 13.539295 14.697266 13.694996 14.697266 13.880859 C 14.697213 14.066668 14.633044 14.224376 14.505859 14.351562 L 12.980469 15.876953 C 12.850843 16.006579 12.674474 16.117224 12.453125 16.208984 C 12.23184 16.300705 12.02775 16.347695 11.841797 16.347656 L 6.6015625 16.349609 C 6.4157235 16.344652 6.2580314 16.279517 6.1308594 16.152344 C 6.0012284 16.022718 5.9375391 15.868519 5.9375 15.6875 L 5.9335938 12.080078 C 5.9384637 11.894228 6.0037894 11.738398 6.1308594 11.611328 C 6.2605624 11.481625 6.4166752 11.416017 6.5976562 11.416016 z M 12.626953 13.216797 C 12.443535 13.2168 12.287777 13.282534 12.158203 13.412109 C 12.028572 13.541735 11.962943 13.697387 11.962891 13.880859 C 11.962889 14.064309 12.02859 14.221948 12.158203 14.351562 C 12.287816 14.481179 12.443608 14.544922 12.626953 14.544922 C 12.810398 14.544919 12.96803 14.481189 13.097656 14.351562 C 13.227232 14.221987 13.291016 14.064307 13.291016 13.880859 C 13.291056 13.697475 13.227283 13.541735 13.097656 13.412109 C 12.968043 13.282492 12.810388 13.216809 12.626953 13.216797 z "
     fill="inherit" />
</svg>
